<svg width="823" height="824" viewBox="0 0 823 824" fill="none" xmlns="http://www.w3.org/2000/svg">
<path d="M315.211 632.5C288.711 623.5 269.311 614.8 243.211 600.3C232.011 594.1 230.211 593 215.911 583.5C203.911 575.5 202.211 574 201.411 571C201.011 569.1 200.311 554.9 200.011 539.5C199.211 501.4 202.211 470.6 209.811 438.1C214.811 416.8 225.711 384.4 233.711 366.8C235.311 363.5 243.111 360.7 273.211 352.6C327.011 338.2 402.311 330.8 472.211 333C519.111 334.5 554.811 338.4 595.711 346.7C621.711 351.9 656.111 361.8 658.411 364.8C659.111 365.6 662.311 373.1 665.611 381.4C679.211 415.9 686.911 446.5 691.411 484C692.811 495.3 693.211 506.1 693.111 532.5C693.111 551.2 692.711 568.2 692.111 570.4C691.311 573.7 690.011 575.1 683.211 579.8C654.411 599.8 617.411 618.9 585.711 630C565.511 637.1 567.711 637.1 562.011 629.2C551.511 614.8 539.911 594.3 541.411 593.1C541.811 592.7 544.911 591.3 548.211 590C553.211 588.1 566.311 581.8 579.011 575.3C580.511 574.5 581.711 573.5 581.711 573.1C581.711 572.7 579.511 570.8 576.811 568.7L571.811 565.1L565.011 568.2C542.011 578.6 513.811 586.5 483.711 590.7C466.111 593.2 427.211 593.2 409.211 590.7C381.511 586.8 350.111 578 328.411 568.2L321.611 565.1L316.611 568.7C313.911 570.8 311.711 572.7 311.711 573.1C311.711 574.5 347.411 591.9 350.411 592C353.211 592 352.611 594.6 347.511 603.7C341.611 614.5 327.711 635.2 326.211 635.6C325.711 635.8 320.711 634.4 315.211 632.5ZM390.711 492.5V484.1L397.011 483.8L403.211 483.5L403.511 474.8L403.811 466H410.211H416.611L416.911 457.3L417.211 448.5L422.211 448.4L427.211 448.3L427.711 439.9L428.211 431.5H446.711H465.211L465.511 439.7L465.811 447.9L471.011 448.2L476.211 448.5L476.511 457.3L476.811 466H483.211H489.611L489.911 474.8L490.211 483.5L496.511 483.8L502.711 484.1V492.5V501H530.211H557.711V492.5V484.1L564.511 483.8L571.211 483.5L571.511 474.8L571.811 466H578.211H584.711V456.9V447.9L590.011 448C592.811 448.1 595.811 448.1 596.511 448.1C597.311 448 597.711 445.6 597.711 439.5V431H604.211H610.711V422V413H446.711H282.711V422V431H289.211H295.711V439.5V447.9L302.011 448.2L308.211 448.5L308.511 457.3L308.811 466H315.211H321.611L321.911 474.8L322.211 483.5L329.011 483.8L335.711 484.1V492.5V501H363.211H390.711V492.5Z" fill="black"/>
<path d="M337.711 474.5V466H344.211H350.711V457V448H344.211H337.711V439.5V431H344.211H350.711V439.5V447.9L357.011 448.2L363.211 448.5L363.511 457.3L363.811 466H370.211H376.711V474.5V483H370.211H363.711V474.5V466H357.211H350.711V474.5V483H344.211H337.711V474.5Z" fill="black"/>
<path d="M505.511 474.8L505.211 466.5L498.511 466.2L491.711 465.9V456.9V447.9L498.211 448.1L504.711 448.3V457.2V466H511.211H517.711V474.5V483H511.711H505.811L505.511 474.8Z" fill="black"/>
<path d="M531.711 474.5V466H538.211H544.711V474.5V483H538.211H531.711V474.5Z" fill="black"/>
<path d="M324.711 457V448H330.711H336.711V457V466H330.711H324.711V457Z" fill="black"/>
<path d="M518.711 457V447.9L525.011 448.2L531.211 448.5L531.511 455C532.011 465.5 531.711 466 524.711 466H518.711V457Z" fill="black"/>
<path d="M484.511 448.2L478.711 447.9V439.5V431H485.211H491.711V439.4C491.711 444.1 491.411 448 491.011 448.2C490.511 448.4 487.611 448.4 484.511 448.2Z" fill="black"/>
<path d="M310.911 439.8L311.211 431.5L317.511 431.2L323.711 430.9V439.5V448H317.211H310.611L310.911 439.8Z" fill="black"/>
<path d="M505.711 439.5V431H511.711H517.711V439.5V448H511.711H505.711V439.5Z" fill="black"/>
<path d="M169.011 508.8C157.811 498.4 149.011 490.1 142.711 484.2L137.211 479L142.711 473.8C177.511 440.9 193.711 425 192.411 425C191.811 425 182.911 427.7 172.711 430.9C162.511 434.2 147.711 438.9 139.711 441.4C131.811 443.9 125.011 445.7 124.711 445.2C123.811 444.1 107.511 377.9 108.011 377.4C108.611 376.8 123.011 373.9 160.711 366.9C166.511 365.8 175.511 364.1 180.711 363.1C207.311 357.9 214.711 356.6 215.111 357.1C215.411 357.4 213.011 365.5 209.811 375.1C194.911 418.7 182.311 473.5 179.111 507.8C178.711 511.8 178.011 515.3 177.611 515.6C177.111 515.9 173.211 512.8 169.011 508.8Z" fill="black"/>
<path d="M232.211 342.5C233.011 340 234.311 336.1 235.111 333.8C237.911 325.2 244.011 310.1 250.911 294.2L258.111 277.9L263.111 276.6C295.511 267.7 346.511 260.2 392.211 257.5C450.611 254 520.811 256.8 571.711 264.6C593.311 267.9 636.311 276.9 637.211 278.2C637.311 278.4 639.411 283.3 642.011 289.1C653.811 315.8 664.911 347 662.711 347C662.211 347 659.411 346.1 656.511 345C636.111 337.4 602.511 329 572.711 324.1C530.311 317 498.111 314.6 447.211 314.6C396.311 314.6 364.111 317 321.711 324.1C291.911 329 258.311 337.4 237.911 345C235.011 346.1 232.211 347 231.711 347C231.211 347 231.411 345 232.211 342.5Z" fill="black"/>
<path d="M264.811 244.7C262.311 239.1 258.611 230.9 256.511 226.6C254.411 222.3 252.811 218.6 252.911 218.5C253.111 218.4 264.511 221.8 278.211 226.1C292.011 230.4 303.911 233.9 304.711 233.9C305.611 234 309.911 227.9 315.511 218.8C320.611 210.4 325.111 202.9 325.611 202.1C326.311 201 330.611 203.4 345.011 212.8C355.211 219.4 364.411 225.3 365.511 225.9C367.411 226.9 369.311 225.1 385.311 207.5C395.011 196.7 403.411 188.1 403.811 188.2C404.211 188.4 407.211 191 410.411 194C416.511 199.8 443.011 223.6 445.911 225.8C447.311 226.9 449.011 225.8 458.911 216.9C465.111 211.2 470.411 206.4 470.711 206C472.011 204.6 490.811 188 491.111 188C491.411 188 499.511 196.8 509.211 207.5C525.311 225.3 527.011 226.9 528.911 225.9C530.111 225.3 539.111 219.4 549.111 212.9C562.711 204 567.411 201.4 568.411 202.2C569.111 202.8 571.111 205.8 572.911 208.9C574.711 212 577.011 215.9 578.211 217.6C579.311 219.4 582.011 223.8 584.211 227.4C586.411 231 588.911 233.9 589.711 233.9C590.511 233.9 602.511 230.4 616.211 226.1C630.011 221.8 641.411 218.4 641.611 218.6C641.811 218.8 640.811 220.8 639.511 223.2C638.211 225.6 634.411 233.7 631.111 241.3C625.511 254.3 625.111 255.1 622.711 254.7C621.311 254.4 613.511 252.9 605.211 251.2C585.011 247.2 567.111 244.3 550.211 242.5C542.511 241.7 535.311 240.8 534.211 240.5C527.111 239 475.711 236.8 446.711 236.8C415.011 236.8 372.611 238.8 356.911 240.9C353.211 241.5 345.511 242.4 339.711 243C323.911 244.7 288.911 250.6 277.511 253.5C274.311 254.3 271.211 255 270.511 255C269.811 255 267.211 250.4 264.811 244.7Z" fill="black"/>
</svg>
